REM DIRINDEX 1\2,1\3,1\4,1\5
REM DIRNAME folder01,folder02,folder03,folder04,folder05
TITLE ""
FILE "Round-05-108-109.mp3" MP3
  TRACK 01 AUDIO
    TITLE "0:"
    INDEX 01 00:00:00
  TRACK 02 AUDIO
    TITLE "2:cjc093_1289"
    INDEX 01 00:00:01
  TRACK 03 AUDIO
    TITLE "0:"
    INDEX 01 00:01:03
  TRACK 04 AUDIO
    TITLE "3:cjc093_1290"
    INDEX 01 00:01:34
  TRACK 05 AUDIO
    TITLE "0:"
    INDEX 01 00:02:69
  TRACK 06 AUDIO
    TITLE "4:cjc093_1291"
    INDEX 01 00:03:19
  TRACK 07 AUDIO
    TITLE "0:"
    INDEX 01 00:06:30
  TRACK 08 AUDIO
    TITLE "4:cjc093_1292"
    INDEX 01 00:07:11
  TRACK 09 AUDIO
    TITLE "0:"
    INDEX 01 00:09:40
  TRACK 10 AUDIO
    TITLE "2:cjc093_1293"
    INDEX 01 00:10:51
  TRACK 11 AUDIO
    TITLE "0:"
    INDEX 01 00:11:60
  TRACK 12 AUDIO
    TITLE "3:cjc093_1294"
    INDEX 01 00:12:14
  TRACK 13 AUDIO
    TITLE "0:"
    INDEX 01 00:13:63
  TRACK 14 AUDIO
    TITLE "4:cjc093_1295"
    INDEX 01 00:14:06
  TRACK 15 AUDIO
    TITLE "0:"
    INDEX 01 00:17:70
  TRACK 16 AUDIO
    TITLE "2:cjc093_1296"
    INDEX 01 00:19:09
  TRACK 17 AUDIO
    TITLE "0:"
    INDEX 01 00:20:12
  TRACK 18 AUDIO
    TITLE "3:cjc093_1297"
    INDEX 01 00:20:41
  TRACK 19 AUDIO
    TITLE "0:"
    INDEX 01 00:22:70
  TRACK 20 AUDIO
    TITLE "4:cjc093_1298"
    INDEX 01 00:23:20
  TRACK 21 AUDIO
    TITLE "0:"
    INDEX 01 00:26:09
  TRACK 22 AUDIO
    TITLE "2:cjc093_1299"
    INDEX 01 00:27:20
  TRACK 23 AUDIO
    TITLE "0:"
    INDEX 01 00:28:68
  TRACK 24 AUDIO
    TITLE "3:cjc093_1300"
    INDEX 01 00:29:15
  TRACK 25 AUDIO
    TITLE "0:"
    INDEX 01 00:30:63
  TRACK 26 AUDIO
    TITLE "4:cjc093_1301"
    INDEX 01 00:31:02
  TRACK 27 AUDIO
    TITLE "0:"
    INDEX 01 00:34:04
  TRACK 28 AUDIO
    TITLE "2:cjc093_1302"
    INDEX 01 00:35:15
  TRACK 29 AUDIO
    TITLE "0:"
    INDEX 01 00:36:21
  TRACK 30 AUDIO
    TITLE "3:cjc093_1303"
    INDEX 01 00:36:58
  TRACK 31 AUDIO
    TITLE "0:"
    INDEX 01 00:38:06
  TRACK 32 AUDIO
    TITLE "4:cjc093_1304"
    INDEX 01 00:38:35
  TRACK 33 AUDIO
    TITLE "0:"
    INDEX 01 00:40:58
  TRACK 34 AUDIO
    TITLE "3:cjc093_1305"
    INDEX 01 00:41:71
  TRACK 35 AUDIO
    TITLE "0:"
    INDEX 01 00:43:40
  TRACK 36 AUDIO
    TITLE "4:cjc093_1306"
    INDEX 01 00:44:07
  TRACK 37 AUDIO
    TITLE "0:"
    INDEX 01 00:47:42
  TRACK 38 AUDIO
    TITLE "2:cjc093_1307"
    INDEX 01 00:48:53
  TRACK 39 AUDIO
    TITLE "0:"
    INDEX 01 00:49:45
  TRACK 40 AUDIO
    TITLE "3:cjc093_1308"
    INDEX 01 00:50:11
  TRACK 41 AUDIO
    TITLE "0:"
    INDEX 01 00:52:00
  TRACK 42 AUDIO
    TITLE "4:cjc093_1309"
    INDEX 01 00:52:30
  TRACK 43 AUDIO
    TITLE "0:"
    INDEX 01 00:55:30
  TRACK 44 AUDIO
    TITLE "3:cjc093_1310"
    INDEX 01 00:56:43
  TRACK 45 AUDIO
    TITLE "0:"
    INDEX 01 00:57:60
  TRACK 46 AUDIO
    TITLE "4:cjc093_1311"
    INDEX 01 00:58:34
  TRACK 47 AUDIO
    TITLE "0:"
    INDEX 01 01:01:21
  TRACK 48 AUDIO
    TITLE "2:cjc093_1312"
    INDEX 01 01:02:34
  TRACK 49 AUDIO
    TITLE "0:"
    INDEX 01 01:03:55
  TRACK 50 AUDIO
    TITLE "3:cjc093_1313"
    INDEX 01 01:04:13
  TRACK 51 AUDIO
    TITLE "0:"
    INDEX 01 01:05:68
  TRACK 52 AUDIO
    TITLE "4:cjc093_1314"
    INDEX 01 01:06:28
  TRACK 53 AUDIO
    TITLE "0:"
    INDEX 01 01:08:52
  TRACK 54 AUDIO
    TITLE "2:cjc093_1315"
    INDEX 01 01:09:61
  TRACK 55 AUDIO
    TITLE "0:"
    INDEX 01 01:10:67
  TRACK 56 AUDIO
    TITLE "3:cjc093_1316"
    INDEX 01 01:11:27
  TRACK 57 AUDIO
    TITLE "0:"
    INDEX 01 01:13:02
  TRACK 58 AUDIO
    TITLE "4:cjc093_1317"
    INDEX 01 01:13:28
  TRACK 59 AUDIO
    TITLE "0:"
    INDEX 01 01:16:03
  TRACK 60 AUDIO
    TITLE "3:cjc093_1318"
    INDEX 01 01:17:18
  TRACK 61 AUDIO
    TITLE "0:"
    INDEX 01 01:19:03
  TRACK 62 AUDIO
    TITLE "4:cjc093_1319"
    INDEX 01 01:19:56
  TRACK 63 AUDIO
    TITLE "0:"
    INDEX 01 01:23:24
